<?xml version="1.0" standalone="no"?>
<!DOCTYPE svg PUBLIC "-//W3C//DTD SVG 20010904//EN"
 "http://www.w3.org/TR/2001/REC-SVG-20010904/DTD/svg10.dtd">
<svg version="1.0" xmlns="http://www.w3.org/2000/svg"
 width="260.000000pt" height="260.000000pt" viewBox="0 0 260.000000 260.000000"
 preserveAspectRatio="xMidYMid meet">
<metadata>
Created by potrace 1.14, written by Peter Selinger 2001-2017
</metadata>
<g transform="translate(0.000000,260.000000) scale(0.100000,-0.100000)"
fill="#000000" stroke="none">
<path d="M407 2138 l36 -83 1 -739 c1 -638 -1 -745 -14 -785 -17 -50 -53 -78
-111 -85 -19 -2 -38 -4 -42 -5 -5 0 -6 -4 -3 -9 6 -11 356 -8 356 3 0 5 -18
10 -41 12 -23 1 -53 10 -66 18 -53 35 -52 27 -53 796 0 392 1 711 4 708 2 -2
34 -76 71 -164 37 -88 78 -184 91 -213 13 -29 24 -58 24 -65 0 -7 4 -17 9 -23
4 -5 23 -45 41 -89 18 -44 40 -98 50 -120 10 -22 30 -69 44 -105 15 -36 31
-74 36 -85 17 -36 130 -306 130 -310 0 -3 11 -28 24 -57 13 -29 36 -82 51
-118 14 -36 32 -78 40 -95 7 -16 20 -47 28 -67 14 -33 19 -36 51 -34 44 2 44
3 62 67 8 30 17 61 19 69 2 8 11 42 20 75 9 33 23 79 30 102 13 39 13 47 -5
88 -11 25 -20 47 -20 50 0 3 -9 21 -20 40 -11 20 -20 42 -20 50 0 8 -4 15 -10
15 -5 0 -10 8 -10 18 0 10 -5 23 -11 29 -6 6 -11 17 -13 24 -1 8 -15 41 -30
74 -16 33 -36 78 -46 100 -9 22 -27 63 -40 90 -32 72 -55 123 -120 270 -32 72
-67 150 -78 175 -44 97 -161 358 -182 408 l-22 52 -149 0 -148 0 36 -82z"/>
<path d="M1775 2212 c-11 -11 -4 -18 23 -20 36 -3 73 -31 95 -73 16 -32 17
-81 14 -724 -2 -379 -7 -703 -10 -720 -4 -16 -9 -44 -12 -61 -6 -35 -33 -94
-42 -94 -4 0 -14 7 -24 16 -16 15 -16 18 3 60 29 68 23 88 -31 92 l-44 3 30
-25 c26 -22 30 -31 26 -63 -2 -20 -6 -39 -9 -42 -7 -8 -134 131 -159 174 -41
71 -31 136 20 130 54 -5 73 -80 34 -129 -32 -41 -17 -41 24 -1 52 50 50 103
-4 130 -42 22 -77 15 -109 -22 -24 -26 -28 -39 -24 -70 3 -21 11 -48 19 -60
17 -25 20 -47 6 -38 -12 7 -81 -58 -82 -79 -1 -9 -2 -22 -3 -28 -4 -25 18 -59
51 -79 44 -27 112 -27 159 0 43 25 48 26 74 4 20 -17 20 -17 -2 -40 -47 -50
-185 -66 -255 -30 -37 20 -134 117 -116 117 4 0 3 4 -2 8 -14 10 -51 96 -68
155 -7 27 -17 49 -21 50 -7 2 -36 -67 -34 -82 0 -3 -1 -8 -2 -11 -1 -3 -3 -12
-5 -20 -1 -8 -15 -59 -29 -114 -16 -59 -24 -102 -18 -108 5 -5 21 -11 35 -13
15 -3 39 -8 55 -11 57 -13 335 -16 396 -4 82 15 192 71 249 124 72 69 139 187
162 286 2 8 4 15 5 15 1 0 3 9 5 20 1 11 5 34 9 50 14 65 18 210 20 695 2 278
6 516 9 530 10 37 51 72 93 79 53 9 43 26 -14 24 -82 -3 -415 -2 -455 1 -20 1
-39 0 -42 -2z m-145 -1550 c0 -4 29 -38 65 -74 l64 -66 -25 -17 c-40 -26 -101
-15 -137 25 -25 28 -28 39 -24 74 3 22 14 46 23 53 20 15 34 17 34 5z"/>
<path d="M1850 2144 c0 -3 4 -14 10 -24 13 -25 18 -123 9 -179 -4 -25 -11 -64
-14 -85 -14 -82 -95 -272 -158 -373 -13 -21 -76 -117 -139 -213 -167 -256
-202 -326 -223 -453 -9 -57 9 -44 23 16 13 58 14 59 31 102 35 86 212 375 244
396 5 3 9 10 9 15 0 5 13 27 28 49 67 98 151 266 184 367 25 76 28 97 33 214
4 90 2 117 -11 143 -15 28 -26 39 -26 25z"/>
<path d="M2116 641 c-33 -69 -84 -131 -144 -177 l-43 -33 143 -1 c79 -1 166
-2 195 -3 28 -1 52 2 52 8 0 6 -5 10 -12 11 -103 4 -150 62 -156 194 -1 30 -3
55 -4 57 -1 1 -15 -24 -31 -56z"/>
</g>
</svg>
